<?xml version="1.0" encoding="UTF-8"?>
<svg xmlns="http://www.w3.org/2000/svg" xmlns:xlink="http://www.w3.org/1999/xlink" width="0" height="0" style="display:none">
  <symbol id="sankofa" viewBox="0 0 24 24"><path fill="currentColor" stroke="currentColor" stroke-width="2" d="M50 2C23.5 2 2 23.5 2 50s21.5 48 48 48 48-21.5 48-48S76.5 2 50 2zm0 86c-21 0-38-17-38-38s17-38 38-38 38 17 38 38-17 38-38 38z"/><path fill="currentColor" stroke="currentColor" stroke-width="2" d="M68 32c-6.6 0-12 5.4-12 12 0 2.3.6 4.4 1.8 6.2L44 63.7c-1.8-1.2-3.9-1.8-6.2-1.8-6.6 0-12 5.4-12 12s5.4 12 12 12 12-5.4 12-12c0-2.3-.6-4.4-1.8-6.2L62 54c1.8 1.2 3.9 1.8 6.2 1.8 6.6 0 12-5.4 12-12s-5.4-12-12-12zM38 80c-3.3 0-6-2.7-6-6s2.7-6 6-6 6 2.7 6 6-2.7 6-6 6zm30-24c-3.3 0-6-2.7-6-6s2.7-6 6-6 6 2.7 6 6-2.7 6-6 6z"/></symbol>
  <symbol id="pattern-4" viewBox="0 0 24 24"><path fill="currentColor" d="M0 0h100v100H0zm100 100h100v100H100zm100 100h100v100H200zm0-200h100v100H200zM0 200h100v100H0z"/></symbol>
  <symbol id="pattern-3" viewBox="0 0 24 24"><path fill="currentColor" d="m150 0 150 75-150 75L0 75z"/><path fill="currentColor" d="m150 75 150 75-150 75L0 150z"/><path fill="currentColor" d="m150 150 150 75-150 75L0 225z"/></symbol>
  <symbol id="pattern-2" viewBox="0 0 24 24"><circle cx="150" cy="150" r="150" fill="currentColor"/><circle cx="150" cy="150" r="100" fill="currentColor"/><circle cx="150" cy="150" r="50" fill="currentColor"/></symbol>
  <symbol id="pattern-1" viewBox="0 0 24 24"><path fill="currentColor" d="m150 0 150 150-150 150L0 150z"/><path fill="currentColor" d="m150 50 100 100-100 100L50 150z"/><path fill="currentColor" d="m150 100 50 50-50 50-50-50z"/></symbol>
  <symbol id="kente" viewBox="0 0 24 24"><path fill="currentColor" d="M0 0h100v100H0z"/></symbol>
  <symbol id="gye-nyame" viewBox="0 0 24 24"><path fill="currentColor" stroke="currentColor" stroke-width="2" d="M50 2C23.5 2 2 23.5 2 50s21.5 48 48 48 48-21.5 48-48S76.5 2 50 2zm0 86c-21 0-38-17-38-38s17-38 38-38 38 17 38 38-17 38-38 38z"/><path fill="currentColor" stroke="currentColor" stroke-width="2" d="M68 33c-3.5-3.5-9-3.5-12.5 0L50 38.5 44.5 33c-3.5-3.5-9-3.5-12.5 0s-3.5 9 0 12.5l5.5 5.5-5.5 5.5c-3.5 3.5-3.5 9 0 12.5 1.75 1.75 4 2.625 6.25 2.625s4.5-.875 6.25-2.625l5.5-5.5 5.5 5.5c1.75 1.75 4 2.625 6.25 2.625S66.25 70.75 68 69c3.5-3.5 3.5-9 0-12.5L62.5 51l5.5-5.5c3.5-3.5 3.5-9 0-12.5z"/></symbol>
  <symbol id="grid-pattern" viewBox="0 0 24 24"><path fill="currentColor" d="M0 0h100v100H0z"/></symbol>
  <symbol id="geometric" viewBox="0 0 24 24"><path fill="currentColor" d="M0 0h100v100H0z"/></symbol>
  <symbol id="dwennimmen" viewBox="0 0 24 24"><path fill="currentColor" stroke="currentColor" stroke-width="2" d="M50 2C23.5 2 2 23.5 2 50s21.5 48 48 48 48-21.5 48-48S76.5 2 50 2zm0 86c-21 0-38-17-38-38s17-38 38-38 38 17 38 38-17 38-38 38z"/><path fill="currentColor" stroke="currentColor" stroke-width="2" d="M68 28H32c-3.3 0-6 2.7-6 6v32c0 3.3 2.7 6 6 6h36c3.3 0 6-2.7 6-6V34c0-3.3-2.7-6-6-6zm-6 28H38V38h24z"/><path fill="currentColor" stroke="currentColor" stroke-width="2" d="M42 44h16v6H42z"/></symbol>
  <symbol id="dots" viewBox="0 0 24 24"><path fill="currentColor" d="M0 0h100v100H0z"/></symbol>
  <symbol id="adinkra" viewBox="0 0 24 24"><path fill="currentColor" d="M0 0h100v100H0z"/></symbol>
</svg>