<svg fill="none" aria-hidden="true" viewBox="0 0 100 100" role="img" focusable="false"><path fill="currentColor" stroke="currentColor" stroke-width="2" d="M50 2C23.5 2 2 23.5 2 50s21.5 48 48 48 48-21.5 48-48S76.5 2 50 2zm0 86c-21 0-38-17-38-38s17-38 38-38 38 17 38 38-17 38-38 38z"/><path fill="currentColor" stroke="currentColor" stroke-width="2" d="M68 33c-3.5-3.5-9-3.5-12.5 0L50 38.5 44.5 33c-3.5-3.5-9-3.5-12.5 0s-3.5 9 0 12.5l5.5 5.5-5.5 5.5c-3.5 3.5-3.5 9 0 12.5 1.75 1.75 4 2.625 6.25 2.625s4.5-.875 6.25-2.625l5.5-5.5 5.5 5.5c1.75 1.75 4 2.625 6.25 2.625S66.25 70.75 68 69c3.5-3.5 3.5-9 0-12.5L62.5 51l5.5-5.5c3.5-3.5 3.5-9 0-12.5z"/></svg>