<svg fill="none" aria-hidden="true" viewBox="0 0 100 100" role="img" focusable="false"><path fill="currentColor" stroke="currentColor" stroke-width="2" d="M50 2C23.5 2 2 23.5 2 50s21.5 48 48 48 48-21.5 48-48S76.5 2 50 2zm0 86c-21 0-38-17-38-38s17-38 38-38 38 17 38 38-17 38-38 38z"/><path fill="currentColor" stroke="currentColor" stroke-width="2" d="M68 28H32c-3.3 0-6 2.7-6 6v32c0 3.3 2.7 6 6 6h36c3.3 0 6-2.7 6-6V34c0-3.3-2.7-6-6-6zm-6 28H38V38h24z"/><path fill="currentColor" stroke="currentColor" stroke-width="2" d="M42 44h16v6H42z"/></svg>