<svg fill="none" aria-hidden="true" viewBox="0 0 100 100" role="img" focusable="false"><path fill="currentColor" stroke="currentColor" stroke-width="2" d="M50 2C23.5 2 2 23.5 2 50s21.5 48 48 48 48-21.5 48-48S76.5 2 50 2zm0 86c-21 0-38-17-38-38s17-38 38-38 38 17 38 38-17 38-38 38z"/><path fill="currentColor" stroke="currentColor" stroke-width="2" d="M68 32c-6.6 0-12 5.4-12 12 0 2.3.6 4.4 1.8 6.2L44 63.7c-1.8-1.2-3.9-1.8-6.2-1.8-6.6 0-12 5.4-12 12s5.4 12 12 12 12-5.4 12-12c0-2.3-.6-4.4-1.8-6.2L62 54c1.8 1.2 3.9 1.8 6.2 1.8 6.6 0 12-5.4 12-12s-5.4-12-12-12zM38 80c-3.3 0-6-2.7-6-6s2.7-6 6-6 6 2.7 6 6-2.7 6-6 6zm30-24c-3.3 0-6-2.7-6-6s2.7-6 6-6 6 2.7 6 6-2.7 6-6 6z"/></svg>