<?xml version="1.0" encoding="UTF-8"?>
<svg width="100" height="100" viewBox="0 0 100 100" fill="none" xmlns="http://www.w3.org/2000/svg">
  <path d="M50 2C23.5 2 2 23.5 2 50s21.5 48 48 48 48-21.5 48-48S76.5 2 50 2zm0 86c-21 0-38-17-38-38s17-38 38-38 38 17 38 38-17 38-38 38z" fill="currentColor" stroke="currentColor" stroke-width="2"/>
  <path d="M68 28H32c-3.3 0-6 2.7-6 6v32c0 3.3 2.7 6 6 6h36c3.3 0 6-2.7 6-6V34c0-3.3-2.7-6-6-6zm-6 28H38V38h24v18z" fill="currentColor" stroke="currentColor" stroke-width="2"/>
  <path d="M42 44h16v6H42z" fill="currentColor" stroke="currentColor" stroke-width="2"/>
</svg> 