<?xml version="1.0" encoding="UTF-8"?>
<svg width="100" height="100" viewBox="0 0 100 100" fill="none" xmlns="http://www.w3.org/2000/svg">
  <path d="M50 2C23.5 2 2 23.5 2 50s21.5 48 48 48 48-21.5 48-48S76.5 2 50 2zm0 86c-21 0-38-17-38-38s17-38 38-38 38 17 38 38-17 38-38 38z" fill="currentColor" stroke="currentColor" stroke-width="2"/>
  <path d="M68 33c-3.5-3.5-9-3.5-12.5 0L50 38.5l-5.5-5.5c-3.5-3.5-9-3.5-12.5 0s-3.5 9 0 12.5L37.5 51l-5.5 5.5c-3.5 3.5-3.5 9 0 12.5 1.75 1.75 4 2.625 6.25 2.625s4.5-.875 6.25-2.625L50 63.5l5.5 5.5c1.75 1.75 4 2.625 6.25 2.625s4.5-.875 6.25-2.625c3.5-3.5 3.5-9 0-12.5L62.5 51l5.5-5.5c3.5-3.5 3.5-9 0-12.5z" fill="currentColor" stroke="currentColor" stroke-width="2"/>
</svg> 